# xmcd
#
# Track frame offsets:
#	150
#	29280
#	58598
#	86290
#	115055
#	135345
#	166402
#	197548
#	212093
#	234452
#	255889
#	272244
#	288004
#
# Disc length: 4256 seconds
# Revision: 0
# Processed by: cddbd v1.5.2PL0 Copyright (c) Steve Scherf et al.
# Submitted via: dBpowerAMP V12.0
#
DISCID=a5109e0d
DTITLE=Franz Kafka - Der Prozess 7
DYEAR=2008
DGENRE=Unbekanntes Genre
TTITLE0=Ende
TTITLE1=Ende
TTITLE2=B's Freundin
TTITLE3=B's Freundin
TTITLE4=B's Freundin
TTITLE5=Staatsanwalt
TTITLE6=Staatsanwalt
TTITLE7=Zu Elsa
TTITLE8=Kampf mit dem Direktor - Stellvertreter
TTITLE9=Kampf mit dem Direktor - Stellvertreter
TTITLE10=Das Haus
TTITLE11=Das Haus
TTITLE12=Fahrt zur Mutter
EXTD=
EXTT0=
EXTT1=
EXTT2=
EXTT3=
EXTT4=
EXTT5=
EXTT6=
EXTT7=
EXTT8=
EXTT9=
EXTT10=
EXTT11=
EXTT12=
PLAYORDER=
